<svg width="96" height="32" viewBox="0 0 96 32" fill="none" xmlns="http://www.w3.org/2000/svg">
<rect width="96" height="32" rx="16" fill="#E7FF86"/>
<path d="M19.5888 21.1392C18.8464 21.1392 18.1851 21.0116 17.6051 20.7564C17.0284 20.4979 16.5727 20.1432 16.2379 19.6925C15.9065 19.2384 15.7358 18.7147 15.7259 18.1214H17.8935C17.9067 18.37 17.9879 18.5888 18.1371 18.7777C18.2895 18.9633 18.4917 19.1075 18.7436 19.2102C18.9955 19.313 19.2789 19.3643 19.5938 19.3643C19.9219 19.3643 20.2119 19.3063 20.4638 19.1903C20.7157 19.0743 20.9129 18.9136 21.0554 18.7081C21.1979 18.5026 21.2692 18.2656 21.2692 17.9972C21.2692 17.7254 21.1929 17.4851 21.0405 17.2763C20.8913 17.0642 20.6759 16.8984 20.3942 16.7791C20.1158 16.6598 19.7843 16.6001 19.3999 16.6001H18.4503V15.0192H19.3999C19.7247 15.0192 20.0114 14.9628 20.2599 14.8501C20.5118 14.7375 20.7074 14.5817 20.8466 14.3828C20.9858 14.1806 21.0554 13.9453 21.0554 13.6768C21.0554 13.4216 20.9941 13.1979 20.8714 13.0057C20.7521 12.8101 20.5831 12.6577 20.3643 12.5483C20.1489 12.4389 19.897 12.3842 19.6087 12.3842C19.317 12.3842 19.0502 12.4373 18.8082 12.5433C18.5663 12.6461 18.3724 12.7936 18.2266 12.9858C18.0807 13.178 18.0028 13.4034 17.9929 13.6619H15.9297C15.9396 13.0753 16.107 12.5582 16.4318 12.1108C16.7566 11.6634 17.1941 11.3137 17.7443 11.0618C18.2978 10.8066 18.9226 10.679 19.6186 10.679C20.3213 10.679 20.9361 10.8066 21.4631 11.0618C21.9901 11.317 22.3994 11.6617 22.6911 12.0959C22.986 12.5268 23.1319 13.0107 23.1286 13.5476C23.1319 14.1177 22.9545 14.5933 22.5966 14.9744C22.242 15.3556 21.7796 15.5975 21.2095 15.7003V15.7798C21.9586 15.8759 22.5286 16.1361 22.9197 16.5604C23.3142 16.9813 23.5097 17.5083 23.5064 18.1413C23.5097 18.7214 23.3423 19.2367 23.0043 19.6875C22.6695 20.1383 22.2071 20.4929 21.6172 20.7514C21.0272 21.0099 20.3511 21.1392 19.5888 21.1392ZM29.796 21.2237C28.9409 21.2204 28.2051 21.0099 27.5886 20.5923C26.9754 20.1747 26.5031 19.5698 26.1717 18.7777C25.8436 17.9856 25.6812 17.0327 25.6845 15.919C25.6845 14.8087 25.8485 13.8625 26.1767 13.0803C26.5081 12.2981 26.9804 11.7031 27.5936 11.2955C28.21 10.8845 28.9442 10.679 29.796 10.679C30.6478 10.679 31.3803 10.8845 31.9934 11.2955C32.6099 11.7064 33.0839 12.303 33.4153 13.0852C33.7467 13.8641 33.9108 14.8087 33.9075 15.919C33.9075 17.036 33.7418 17.9905 33.4103 18.7827C33.0822 19.5748 32.6116 20.1797 31.9984 20.5973C31.3852 21.0149 30.6511 21.2237 29.796 21.2237ZM29.796 19.4389C30.3793 19.4389 30.845 19.1456 31.193 18.5589C31.541 17.9723 31.7134 17.0923 31.71 15.919C31.71 15.1468 31.6305 14.5038 31.4714 13.9901C31.3156 13.4763 31.0936 13.0902 30.8052 12.8317C30.5202 12.5732 30.1838 12.4439 29.796 12.4439C29.216 12.4439 28.752 12.7339 28.4039 13.3139C28.0559 13.8939 27.8803 14.7623 27.877 15.919C27.877 16.7012 27.9548 17.3542 28.1106 17.8778C28.2697 18.3982 28.4934 18.7893 28.7818 19.0511C29.0701 19.3097 29.4082 19.4389 29.796 19.4389ZM41.7656 19.0909V18.554C41.7656 18.1463 41.8518 17.7718 42.0241 17.4304C42.1998 17.0857 42.4534 16.8106 42.7848 16.6051C43.1196 16.3963 43.5272 16.2919 44.0078 16.2919C44.495 16.2919 44.9044 16.3946 45.2358 16.6001C45.5705 16.8056 45.8224 17.0807 45.9915 17.4254C46.1638 17.7668 46.25 18.143 46.25 18.554V19.0909C46.25 19.4986 46.1638 19.8748 45.9915 20.2195C45.8191 20.5608 45.5656 20.8343 45.2308 21.0398C44.8961 21.2486 44.4884 21.353 44.0078 21.353C43.5206 21.353 43.1113 21.2486 42.7798 21.0398C42.4484 20.8343 42.1965 20.5608 42.0241 20.2195C41.8518 19.8748 41.7656 19.4986 41.7656 19.0909ZM43.2124 18.554V19.0909C43.2124 19.3262 43.2687 19.5483 43.3814 19.7571C43.4974 19.9659 43.7062 20.0703 44.0078 20.0703C44.3094 20.0703 44.5149 19.9676 44.6243 19.7621C44.737 19.5566 44.7933 19.3329 44.7933 19.0909V18.554C44.7933 18.312 44.7403 18.0866 44.6342 17.8778C44.5282 17.669 44.3194 17.5646 44.0078 17.5646C43.7095 17.5646 43.5024 17.669 43.3864 17.8778C43.2704 18.0866 43.2124 18.312 43.2124 18.554ZM36.5405 13.2642V12.7273C36.5405 12.3163 36.6283 11.9401 36.804 11.5987C36.9796 11.254 37.2332 10.9789 37.5646 10.7734C37.8994 10.5679 38.3037 10.4652 38.7777 10.4652C39.2682 10.4652 39.6792 10.5679 40.0107 10.7734C40.3421 10.9789 40.594 11.254 40.7663 11.5987C40.9387 11.9401 41.0249 12.3163 41.0249 12.7273V13.2642C41.0249 13.6752 40.937 14.0514 40.7614 14.3928C40.589 14.7341 40.3355 15.0076 40.0007 15.2131C39.6693 15.4152 39.2616 15.5163 38.7777 15.5163C38.2938 15.5163 37.8845 15.4136 37.5497 15.2081C37.2183 14.9993 36.9664 14.7259 36.794 14.3878C36.625 14.0464 36.5405 13.6719 36.5405 13.2642ZM37.9972 12.7273V13.2642C37.9972 13.5062 38.0535 13.7299 38.1662 13.9354C38.2822 14.1409 38.486 14.2436 38.7777 14.2436C39.0826 14.2436 39.2898 14.1409 39.3991 13.9354C39.5118 13.7299 39.5682 13.5062 39.5682 13.2642V12.7273C39.5682 12.4853 39.5152 12.2599 39.4091 12.0511C39.303 11.8423 39.0926 11.7379 38.7777 11.7379C38.4827 11.7379 38.2789 11.844 38.1662 12.0561C38.0535 12.2682 37.9972 12.492 37.9972 12.7273ZM37.1967 21L44.1967 10.8182H45.4993L38.4993 21H37.1967ZM62.3801 15.9091C62.3801 17.0194 62.1697 17.964 61.7488 18.7429C61.3311 19.5218 60.7611 20.1167 60.0385 20.5277C59.3193 20.9354 58.5106 21.1392 57.6124 21.1392C56.7076 21.1392 55.8955 20.9337 55.1763 20.5227C54.4571 20.1117 53.8887 19.5168 53.4711 18.7379C53.0534 17.959 52.8446 17.0161 52.8446 15.9091C52.8446 14.7988 53.0534 13.8542 53.4711 13.0753C53.8887 12.2964 54.4571 11.7031 55.1763 11.2955C55.8955 10.8845 56.7076 10.679 57.6124 10.679C58.5106 10.679 59.3193 10.8845 60.0385 11.2955C60.7611 11.7031 61.3311 12.2964 61.7488 13.0753C62.1697 13.8542 62.3801 14.7988 62.3801 15.9091ZM60.1976 15.9091C60.1976 15.1899 60.0899 14.5833 59.8745 14.0895C59.6623 13.5956 59.3624 13.2211 58.9746 12.9659C58.5868 12.7107 58.1328 12.5831 57.6124 12.5831C57.092 12.5831 56.638 12.7107 56.2502 12.9659C55.8624 13.2211 55.5608 13.5956 55.3453 14.0895C55.1332 14.5833 55.0272 15.1899 55.0272 15.9091C55.0272 16.6283 55.1332 17.2348 55.3453 17.7287C55.5608 18.2225 55.8624 18.5971 56.2502 18.8523C56.638 19.1075 57.092 19.2351 57.6124 19.2351C58.1328 19.2351 58.5868 19.1075 58.9746 18.8523C59.3624 18.5971 59.6623 18.2225 59.8745 17.7287C60.0899 17.2348 60.1976 16.6283 60.1976 15.9091ZM64.7248 21V10.8182H71.4663V12.593H66.8775V15.0192H71.0188V16.794H66.8775V21H64.7248ZM73.6642 21V10.8182H80.4057V12.593H75.8169V15.0192H79.9583V16.794H75.8169V21H73.6642Z" fill="#474747"/>
</svg>
